<?xml version="1.0" encoding="UTF-8"?>
<svg width="135px" height="40px" viewBox="0 0 135 40" version="1.1" xmlns="http://www.w3.org/2000/svg" xmlns:xlink="http://www.w3.org/1999/xlink">
    <title>btn-appcenter</title>
    <g id="Icons" stroke="none" stroke-width="1" fill="none" fill-rule="evenodd">
        <g id="btn-appcenter">
            <rect id="background" fill="#F6F6F6" x="0" y="0" width="135" height="40" rx="4"></rect>
            <g id="button" transform="translate(2.7931, 2.4897)" fill="#CB2E62" fill-rule="nonzero">
                <g id="icon">
                    <polygon id="Path" points="26.1155172 29.8877586 34.8206897 31.1935345 26.1155172 34.8206897 0 26.1155172 26.1155172 29.8877586 26.1155172 0 34.8206897 3.62715517 34.8206897 31.1935345"></polygon>
                    <path d="M8.76604775,5.77241379 L12.0934218,6.49575597 L12.0934218,11.7038196 L17.4461538,7.94244032 L17.4461538,12.2824934 L11.9487533,15.1758621 L17.4461538,18.0692308 L17.4461538,22.4092838 L11.9487533,18.6479045 L11.9487533,23.8559682 L8.76604775,24.5793103 L2.97931034,19.5159151 L2.97931034,17.3458886 L6.30668435,15.1758621 L2.97931034,13.0058355 L2.97931034,10.835809 L8.76604775,5.77241379 Z M4.71533156,11.7038196 L8.76604775,13.7291777 L8.76604775,8.66578249 L4.71533156,11.7038196 Z M8.76604775,21.6859416 L8.76604775,16.6225464 L4.71533156,18.6479045 L8.76604775,21.6859416 Z M17.4461538,7.94244032 L21.7862069,9.38912467 L21.7862069,20.9625995 L17.4461538,22.4092838 L17.4461538,7.94244032 Z" id="Shape"></path>
                </g>
                <g id="text2" transform="translate(41.8049, 15.466)">
                    <path d="M3.89358621,6.94737931 L5.3136,2.94691034 L5.34413793,2.94691034 L6.71834483,6.94737931 L3.89358621,6.94737931 Z M4.12262069,0.259572414 L0,11.1616138 L2.41249655,11.1616138 L3.26755862,8.73384828 L7.34437241,8.73384828 L8.16889655,11.1616138 L10.6577379,11.1616138 L6.58092414,0.259572414 L4.12262069,0.259572414 Z" id="Shape"></path>
                    <path d="M15.397203,9.7416 C15.0511064,9.7416 14.7559064,9.67034483 14.511603,9.52783448 C14.2672995,9.38532414 14.0713478,9.19955172 13.9237478,8.97051724 C13.7761478,8.74148276 13.669265,8.47427586 13.6030995,8.16889655 C13.536934,7.86351724 13.5038512,7.55304828 13.5038512,7.23748966 C13.5038512,6.91175172 13.5343892,6.5961931 13.595465,6.29081379 C13.6565409,5.98543448 13.7608788,5.71568276 13.9084788,5.48155862 C14.0560788,5.24743448 14.2494857,5.05657241 14.4886995,4.90897241 C14.7279133,4.76137241 15.0256581,4.68757241 15.381934,4.68757241 C15.7280305,4.68757241 16.0206857,4.76137241 16.2598995,4.90897241 C16.4991133,5.05657241 16.695065,5.24997931 16.8477547,5.4891931 C17.0004443,5.7284069 17.1098719,6.00070345 17.1760374,6.30608276 C17.242203,6.61146207 17.2752857,6.92193103 17.2752857,7.23748966 C17.2752857,7.55304828 17.2447478,7.86351724 17.1836719,8.16889655 C17.1225961,8.47427586 17.0182581,8.74148276 16.8706581,8.97051724 C16.7230581,9.19955172 16.5296512,9.38532414 16.2904374,9.52783448 C16.0512237,9.67034483 15.7534788,9.7416 15.397203,9.7416 Z M11.412003,3.26755862 L11.412003,13.9252966 L13.5801961,13.9252966 L13.5801961,10.1844 L13.610734,10.1844 C13.8753961,10.5712138 14.2138581,10.863869 14.6261202,11.0623655 C15.0383823,11.2608621 15.4888168,11.3601103 15.9774237,11.3601103 C16.5576443,11.3601103 17.064065,11.2481379 17.4966857,11.0241931 C17.9293064,10.8002483 18.2906719,10.4999586 18.5807823,10.1233241 C18.8708926,9.74668966 19.087203,9.31406897 19.2297133,8.82546207 C19.3722237,8.33685517 19.4434788,7.82788966 19.4434788,7.29856552 C19.4434788,6.73870345 19.3722237,6.20174483 19.2297133,5.68768966 C19.087203,5.17363448 18.8683478,4.7232 18.5731478,4.33638621 C18.2779478,3.94957241 17.906403,3.63910345 17.4585133,3.40497931 C17.0106237,3.17085517 16.4762099,3.0537931 15.8552719,3.0537931 C15.366665,3.0537931 14.9187754,3.15049655 14.511603,3.34390345 C14.1044305,3.53731034 13.7685133,3.84777931 13.5038512,4.27531034 L13.4733133,4.27531034 L13.4733133,3.26755862 L11.412003,3.26755862 Z" id="Shape"></path>
                    <path d="M24.7631645,9.7416 C24.417068,9.7416 24.121868,9.67034483 23.8775645,9.52783448 C23.6332611,9.38532414 23.4373094,9.19955172 23.2897094,8.97051724 C23.1421094,8.74148276 23.0352266,8.47427586 22.9690611,8.16889655 C22.9028956,7.86351724 22.8698128,7.55304828 22.8698128,7.23748966 C22.8698128,6.91175172 22.9003508,6.5961931 22.9614266,6.29081379 C23.0225025,5.98543448 23.1268404,5.71568276 23.2744404,5.48155862 C23.4220404,5.24743448 23.6154473,5.05657241 23.8546611,4.90897241 C24.0938749,4.76137241 24.3916197,4.68757241 24.7478956,4.68757241 C25.0939921,4.68757241 25.3866473,4.76137241 25.6258611,4.90897241 C25.8650749,5.05657241 26.0610266,5.24997931 26.2137163,5.4891931 C26.3664059,5.7284069 26.4758335,6.00070345 26.541999,6.30608276 C26.6081645,6.61146207 26.6412473,6.92193103 26.6412473,7.23748966 C26.6412473,7.55304828 26.6107094,7.86351724 26.5496335,8.16889655 C26.4885576,8.47427586 26.3842197,8.74148276 26.2366197,8.97051724 C26.0890197,9.19955172 25.8956128,9.38532414 25.656399,9.52783448 C25.4171852,9.67034483 25.1194404,9.7416 24.7631645,9.7416 Z M20.7779645,3.26755862 L20.7779645,13.9252966 L22.9461576,13.9252966 L22.9461576,10.1844 L22.9766956,10.1844 C23.2413576,10.5712138 23.5798197,10.863869 23.9920818,11.0623655 C24.4043439,11.2608621 24.8547783,11.3601103 25.3433852,11.3601103 C25.9236059,11.3601103 26.4300266,11.2481379 26.8626473,11.0241931 C27.295268,10.8002483 27.6566335,10.4999586 27.9467439,10.1233241 C28.2368542,9.74668966 28.4531645,9.31406897 28.5956749,8.82546207 C28.7381852,8.33685517 28.8094404,7.82788966 28.8094404,7.29856552 C28.8094404,6.73870345 28.7381852,6.20174483 28.5956749,5.68768966 C28.4531645,5.17363448 28.2343094,4.7232 27.9391094,4.33638621 C27.6439094,3.94957241 27.2723645,3.63910345 26.8244749,3.40497931 C26.3765852,3.17085517 25.8421714,3.0537931 25.2212335,3.0537931 C24.7326266,3.0537931 24.284737,3.15049655 23.8775645,3.34390345 C23.4703921,3.53731034 23.1344749,3.84777931 22.8698128,4.27531034 L22.8392749,4.27531034 L22.8392749,3.26755862 L20.7779645,3.26755862 Z" id="Shape"></path>
                    <path d="M41.9223843,3.92412414 L44.243267,3.92412414 C44.1720119,3.2930069 43.9989636,2.73314483 43.7241222,2.24453793 C43.4492808,1.75593103 43.1006394,1.34621379 42.6781981,1.01538621 C42.2557567,0.684558621 41.7773291,0.43262069 41.2429153,0.259572414 C40.7085015,0.0865241379 40.141005,0 39.5404256,0 C38.7057222,0 37.9549981,0.1476 37.2882532,0.4428 C36.6215084,0.738 36.0591015,1.14517241 35.6010325,1.66431724 C35.1429636,2.18346207 34.7917774,2.79167586 34.5474739,3.48895862 C34.3031705,4.18624138 34.1810187,4.94205517 34.1810187,5.7564 C34.1810187,6.55038621 34.3031705,7.29093103 34.5474739,7.97803448 C34.7917774,8.66513793 35.1429636,9.26317241 35.6010325,9.77213793 C36.0591015,10.2811034 36.6215084,10.6806414 37.2882532,10.9707517 C37.9549981,11.2608621 38.7057222,11.4059172 39.5404256,11.4059172 C40.2122601,11.4059172 40.8281084,11.3041241 41.3879705,11.1005379 C41.9478325,10.8969517 42.4364394,10.6017517 42.8537912,10.2149379 C43.2711429,9.82812414 43.6070601,9.35987586 43.8615429,8.8101931 C44.1160256,8.26051034 44.273805,7.64466207 44.3348808,6.96264828 L42.0139981,6.96264828 C41.9223843,7.69555862 41.6704463,8.28595862 41.2581843,8.73384828 C40.8459222,9.18173793 40.273336,9.40568276 39.5404256,9.40568276 C39.0009222,9.40568276 38.5428532,9.30134483 38.1662187,9.09266897 C37.7895843,8.8839931 37.484205,8.6066069 37.2500808,8.26051034 C37.0159567,7.91441379 36.8454532,7.52505517 36.7385705,7.09243448 C36.6316877,6.65981379 36.5782463,6.21446897 36.5782463,5.7564 C36.5782463,5.27797241 36.6316877,4.81481379 36.7385705,4.36692414 C36.8454532,3.91903448 37.0159567,3.51949655 37.2500808,3.16831034 C37.484205,2.81712414 37.7895843,2.5371931 38.1662187,2.32851724 C38.5428532,2.11984138 39.0009222,2.01550345 39.5404256,2.01550345 C39.8356256,2.01550345 40.1181015,2.06385517 40.3878532,2.16055862 C40.657605,2.25726207 40.8993636,2.39213793 41.1131291,2.56518621 C41.3268946,2.73823448 41.5050325,2.93927586 41.6475429,3.16831034 C41.7900532,3.39734483 41.881667,3.64928276 41.9223843,3.92412414 Z" id="Path"></path>
                    <path d="M51.0898493,6.36715862 L47.5627183,6.36715862 C47.5728976,6.21446897 47.6059803,6.04142069 47.6619665,5.84801379 C47.7179527,5.6546069 47.8146562,5.47137931 47.9520769,5.29833103 C48.0894976,5.12528276 48.2727252,4.98022759 48.5017596,4.86316552 C48.7307941,4.74610345 49.0183596,4.68757241 49.3644562,4.68757241 C49.8937803,4.68757241 50.2882286,4.83008276 50.547801,5.11510345 C50.8073734,5.40012414 50.9880562,5.81747586 51.0898493,6.36715862 Z M47.5627183,7.74136552 L53.2580424,7.74136552 C53.2987596,7.1306069 53.2478631,6.54529655 53.1053527,5.98543448 C52.9628424,5.42557241 52.7312631,4.92678621 52.4106148,4.48907586 C52.0899665,4.05136552 51.6802493,3.70272414 51.1814631,3.44315172 C50.6826769,3.18357931 50.0973665,3.0537931 49.4255321,3.0537931 C48.8249527,3.0537931 48.2778148,3.16067586 47.7841183,3.37444138 C47.2904217,3.5882069 46.8654355,3.88086207 46.5091596,4.2524069 C46.1528838,4.62395172 45.8780424,5.0642069 45.6846355,5.57317241 C45.4912286,6.08213793 45.3945252,6.63182069 45.3945252,7.22222069 C45.3945252,7.83297931 45.4886838,8.39284138 45.677001,8.9018069 C45.8653183,9.41077241 46.1325252,9.84848276 46.4786217,10.2149379 C46.8247183,10.5813931 47.2471596,10.863869 47.7459458,11.0623655 C48.2447321,11.2608621 48.8045941,11.3601103 49.4255321,11.3601103 C50.3213114,11.3601103 51.0847596,11.1565241 51.7158769,10.7493517 C52.3469941,10.3421793 52.8152424,9.66525517 53.1206217,8.71857931 L51.212001,8.71857931 C51.1407458,8.96288276 50.947339,9.19446207 50.6317803,9.41331724 C50.3162217,9.63217241 49.9395872,9.7416 49.5018769,9.7416 C48.8911183,9.7416 48.42287,9.58382069 48.0971321,9.26826207 C47.7713941,8.95270345 47.5932562,8.44373793 47.5627183,7.74136552 Z" id="Shape"></path>
                    <path d="M54.5772592,3.26755862 L54.5772592,11.1616138 L56.7454523,11.1616138 L56.7454523,7.02372414 C56.7454523,6.21955862 56.8777833,5.64188276 57.1424454,5.29069655 C57.4071074,4.93951034 57.8346385,4.76391724 58.4250385,4.76391724 C58.9441833,4.76391724 59.3055488,4.92424138 59.509135,5.24488966 C59.7127212,5.56553793 59.8145143,6.0516 59.8145143,6.70307586 L59.8145143,11.1616138 L61.9827074,11.1616138 L61.9827074,6.30608276 C61.9827074,5.81747586 61.9394454,5.37213103 61.8529212,4.97004828 C61.7663971,4.56796552 61.6162523,4.22695862 61.4024867,3.94702759 C61.1887212,3.66709655 60.8960661,3.44824138 60.5245212,3.29046207 C60.1529764,3.13268276 59.6770936,3.0537931 59.0968729,3.0537931 C58.638804,3.0537931 58.1909143,3.15813103 57.753204,3.3668069 C57.3154936,3.57548276 56.9592178,3.90885517 56.6843764,4.36692414 L56.6385695,4.36692414 L56.6385695,3.26755862 L54.5772592,3.26755862 Z" id="Path"></path>
                    <path d="M66.4167932,3.26755862 L66.4167932,0.900868966 L64.2486,0.900868966 L64.2486,3.26755862 L62.935469,3.26755862 L62.935469,4.71811034 L64.2486,4.71811034 L64.2486,9.37514483 C64.2486,9.77213793 64.3147656,10.0927862 64.4470966,10.3370897 C64.5794276,10.5813931 64.7601104,10.7697103 64.9891449,10.9020414 C65.2181794,11.0343724 65.4828414,11.1234414 65.7831311,11.1692483 C66.0834207,11.2150552 66.4015242,11.2379586 66.7374414,11.2379586 C66.9512069,11.2379586 67.1700621,11.232869 67.3940069,11.2226897 C67.6179518,11.2125103 67.821538,11.1921517 68.0047656,11.1616138 L68.0047656,9.48202759 C67.9029725,9.50238621 67.7960897,9.51765517 67.6841173,9.52783448 C67.5721449,9.53801379 67.4550828,9.54310345 67.3329311,9.54310345 C66.9664759,9.54310345 66.7221725,9.48202759 66.6000207,9.35987586 C66.477869,9.23772414 66.4167932,8.99342069 66.4167932,8.62696552 L66.4167932,4.71811034 L68.0047656,4.71811034 L68.0047656,3.26755862 L66.4167932,3.26755862 Z" id="Path"></path>
                    <path d="M74.3932789,6.36715862 L70.8661478,6.36715862 C70.8763272,6.21446897 70.9094099,6.04142069 70.9653961,5.84801379 C71.0213823,5.6546069 71.1180858,5.47137931 71.2555065,5.29833103 C71.3929272,5.12528276 71.5761547,4.98022759 71.8051892,4.86316552 C72.0342237,4.74610345 72.3217892,4.68757241 72.6678858,4.68757241 C73.1972099,4.68757241 73.5916582,4.83008276 73.8512306,5.11510345 C74.110803,5.40012414 74.2914858,5.81747586 74.3932789,6.36715862 Z M70.8661478,7.74136552 L76.561472,7.74136552 C76.6021892,7.1306069 76.5512927,6.54529655 76.4087823,5.98543448 C76.266272,5.42557241 76.0346927,4.92678621 75.7140444,4.48907586 C75.3933961,4.05136552 74.9836789,3.70272414 74.4848927,3.44315172 C73.9861065,3.18357931 73.4007961,3.0537931 72.7289616,3.0537931 C72.1283823,3.0537931 71.5812444,3.16067586 71.0875478,3.37444138 C70.5938513,3.5882069 70.1688651,3.88086207 69.8125892,4.2524069 C69.4563134,4.62395172 69.181472,5.0642069 68.9880651,5.57317241 C68.7946582,6.08213793 68.6979547,6.63182069 68.6979547,7.22222069 C68.6979547,7.83297931 68.7921134,8.39284138 68.9804306,8.9018069 C69.1687478,9.41077241 69.4359547,9.84848276 69.7820513,10.2149379 C70.1281478,10.5813931 70.5505892,10.863869 71.0493754,11.0623655 C71.5481616,11.2608621 72.1080237,11.3601103 72.7289616,11.3601103 C73.6247409,11.3601103 74.3881892,11.1565241 75.0193065,10.7493517 C75.6504237,10.3421793 76.118672,9.66525517 76.4240513,8.71857931 L74.5154306,8.71857931 C74.4441754,8.96288276 74.2507685,9.19446207 73.9352099,9.41331724 C73.6196513,9.63217241 73.2430168,9.7416 72.8053065,9.7416 C72.1945478,9.7416 71.7262996,9.58382069 71.4005616,9.26826207 C71.0748237,8.95270345 70.8966858,8.44373793 70.8661478,7.74136552 Z" id="Shape"></path>
                    <path d="M77.8806887,3.26755862 L77.8806887,11.1616138 L80.0488818,11.1616138 L80.0488818,7.60394483 C80.0488818,7.24766897 80.0845094,6.91684138 80.1557646,6.61146207 C80.2270198,6.30608276 80.3466267,6.03887586 80.5145853,5.80984138 C80.6825439,5.5808069 80.9039439,5.40012414 81.1787853,5.2677931 C81.4536267,5.13546207 81.7895439,5.06929655 82.186537,5.06929655 C82.318868,5.06929655 82.4562887,5.07693103 82.5987991,5.0922 C82.7413094,5.10746897 82.8634611,5.12528276 82.9652543,5.14564138 L82.9652543,3.13013793 C82.792206,3.07924138 82.6344267,3.0537931 82.4919163,3.0537931 C82.2170749,3.0537931 81.9524129,3.09451034 81.6979301,3.17594483 C81.4434474,3.25737931 81.2042336,3.37189655 80.9802887,3.51949655 C80.7563439,3.66709655 80.5578474,3.84523448 80.3847991,4.05391034 C80.2117508,4.26258621 80.0743301,4.48907586 79.972537,4.73337931 L79.9419991,4.73337931 L79.9419991,3.26755862 L77.8806887,3.26755862 Z" id="Path"></path>
                </g>
                <g id="text1" transform="translate(42.2569, 2.0678)">
                    <path d="M5.49682759,6.12527586 L4.82648276,6.12527586 L4.66727586,5.42141379 C4.38796552,5.73982759 4.10865517,5.96048276 3.82934483,6.08337931 C3.55003448,6.20627586 3.22882759,6.26772414 2.86572414,6.26772414 C2.41882759,6.26772414 2.01801724,6.18532759 1.6632931,6.02053448 C1.30856897,5.85574138 1.00831034,5.63089655 0.762517241,5.346 C0.516724138,5.06110345 0.328189655,4.72872414 0.196913793,4.34886207 C0.065637931,3.969 0,3.564 0,3.13386207 C0,2.70931034 0.065637931,2.30710345 0.196913793,1.92724138 C0.328189655,1.54737931 0.516724138,1.215 0.762517241,0.930103448 C1.00831034,0.645206897 1.30856897,0.418965517 1.6632931,0.25137931 C2.01801724,0.0837931034 2.41882759,0 2.86572414,0 C3.18972414,0 3.49836207,0.0432931034 3.79163793,0.12987931 C4.08491379,0.216465517 4.34606897,0.344948276 4.57510345,0.515327586 C4.80413793,0.685706897 4.99406897,0.89937931 5.14489655,1.15634483 C5.29572414,1.41331034 5.39068966,1.70937931 5.4297931,2.04455172 L4.40751724,2.04455172 C4.37958621,1.84903448 4.31953448,1.67725862 4.22736207,1.52922414 C4.13518966,1.38118966 4.01927586,1.25689655 3.87962069,1.15634483 C3.73996552,1.0557931 3.58355172,0.98037931 3.41037931,0.930103448 C3.2372069,0.879827586 3.05565517,0.854689655 2.86572414,0.854689655 C2.54731034,0.854689655 2.27218966,0.918931034 2.04036207,1.04741379 C1.80853448,1.17589655 1.62,1.34767241 1.47475862,1.56274138 C1.32951724,1.77781034 1.22198276,2.0222069 1.15215517,2.29593103 C1.08232759,2.56965517 1.04741379,2.84896552 1.04741379,3.13386207 C1.04741379,3.41875862 1.08232759,3.69806897 1.15215517,3.9717931 C1.22198276,4.24551724 1.32951724,4.48991379 1.47475862,4.70498276 C1.62,4.92005172 1.80853448,5.09182759 2.04036207,5.22031034 C2.27218966,5.3487931 2.54731034,5.41303448 2.86572414,5.41303448 C3.13386207,5.41862069 3.37127586,5.3837069 3.57796552,5.3082931 C3.78465517,5.23287931 3.95922414,5.12394828 4.10167241,4.9815 C4.24412069,4.83905172 4.35165517,4.66448276 4.42427586,4.4577931 C4.49689655,4.25110345 4.536,4.02206897 4.54158621,3.77068966 L2.94951724,3.77068966 L2.94951724,2.97465517 L5.49682759,2.97465517 L5.49682759,6.12527586 Z" id="Path"></path>
                    <polygon id="Path" points="6.65651214 0.142448276 10.9634777 0.142448276 10.9634777 1.04741379 7.70392593 1.04741379 7.70392593 2.61434483 10.7204777 2.61434483 10.7204777 3.46903448 7.70392593 3.46903448 7.70392593 5.22031034 11.0221328 5.22031034 11.0221328 6.12527586 6.65651214 6.12527586"></polygon>
                    <polygon id="Path" points="11.3857829 0.142448276 16.2290243 0.142448276 16.2290243 1.04741379 14.3269208 1.04741379 14.3269208 6.12527586 13.279507 6.12527586 13.279507 1.04741379 11.3857829 1.04741379"></polygon>
                    <polygon id="Path" points="19.294152 0.142448276 20.3415658 0.142448276 20.3415658 6.12527586 19.294152 6.12527586"></polygon>
                    <polygon id="Path" points="21.0739055 0.142448276 25.9171469 0.142448276 25.9171469 1.04741379 24.0150435 1.04741379 24.0150435 6.12527586 22.9676297 6.12527586 22.9676297 1.04741379 21.0739055 1.04741379"></polygon>
                    <path d="M31.529585,0.854689655 C31.2111712,0.854689655 30.9360505,0.918931034 30.7042229,1.04741379 C30.4723953,1.17589655 30.2838608,1.34767241 30.1386195,1.56274138 C29.9933781,1.77781034 29.8858436,2.0222069 29.816016,2.29593103 C29.7461884,2.56965517 29.7112746,2.84896552 29.7112746,3.13386207 C29.7112746,3.41875862 29.7461884,3.69806897 29.816016,3.9717931 C29.8858436,4.24551724 29.9933781,4.48991379 30.1386195,4.70498276 C30.2838608,4.92005172 30.4723953,5.09182759 30.7042229,5.22031034 C30.9360505,5.3487931 31.2111712,5.41303448 31.529585,5.41303448 C31.8479988,5.41303448 32.1231195,5.3487931 32.354947,5.22031034 C32.5867746,5.09182759 32.7753091,4.92005172 32.9205505,4.70498276 C33.0657919,4.48991379 33.1733264,4.24551724 33.2431539,3.9717931 C33.3129815,3.69806897 33.3478953,3.41875862 33.3478953,3.13386207 C33.3478953,2.84896552 33.3129815,2.56965517 33.2431539,2.29593103 C33.1733264,2.0222069 33.0657919,1.77781034 32.9205505,1.56274138 C32.7753091,1.34767241 32.5867746,1.17589655 32.354947,1.04741379 C32.1231195,0.918931034 31.8479988,0.854689655 31.529585,0.854689655 Z M31.529585,0 C31.9764815,0 32.3772919,0.0837931034 32.732016,0.25137931 C33.0867401,0.418965517 33.3869988,0.645206897 33.6327919,0.930103448 C33.878585,1.215 34.0671195,1.54737931 34.1983953,1.92724138 C34.3296712,2.30710345 34.3953091,2.70931034 34.3953091,3.13386207 C34.3953091,3.564 34.3296712,3.969 34.1983953,4.34886207 C34.0671195,4.72872414 33.878585,5.06110345 33.6327919,5.346 C33.3869988,5.63089655 33.0867401,5.85574138 32.732016,6.02053448 C32.3772919,6.18532759 31.9764815,6.26772414 31.529585,6.26772414 C31.0826884,6.26772414 30.6818781,6.18532759 30.3271539,6.02053448 C29.9724298,5.85574138 29.6721712,5.63089655 29.4263781,5.346 C29.180585,5.06110345 28.9920505,4.72872414 28.8607746,4.34886207 C28.7294988,3.969 28.6638608,3.564 28.6638608,3.13386207 C28.6638608,2.70931034 28.7294988,2.30710345 28.8607746,1.92724138 C28.9920505,1.54737931 29.180585,1.215 29.4263781,0.930103448 C29.6721712,0.645206897 29.9724298,0.418965517 30.3271539,0.25137931 C30.6818781,0.0837931034 31.0826884,0 31.529585,0 Z" id="Shape"></path>
                    <polygon id="Path" points="35.3287523 0.142448276 36.4348212 0.142448276 39.1664764 4.54996552 39.183235 4.54996552 39.183235 0.142448276 40.180373 0.142448276 40.180373 6.12527586 39.074304 6.12527586 36.3510281 1.72613793 36.3258902 1.72613793 36.3258902 6.12527586 35.3287523 6.12527586"></polygon>
                </g>
            </g>
        </g>
    </g>
</svg>